<svg xmlns="http://www.w3.org/2000/svg" width="22" height="22" viewBox="0 0 22 22">
  <path id="deadline" d="M14.652,11.215a.859.859,0,0,1,.859.859v2.6a.86.86,0,0,1-.306.658l-1.377,1.158a.859.859,0,1,1-1.106-1.315l1.071-.9v-2.2a.859.859,0,0,1,.859-.859ZM21.14,7.82a.859.859,0,0,0-.859.859V10a7.328,7.328,0,1,0-5.629,12,7.4,7.4,0,0,0,3.192-.724l.05-.023.014-.008c.116-.057.23-.116.343-.179a.859.859,0,0,0-.839-1.5,5.617,5.617,0,1,1-2.78-10.5,5.606,5.606,0,0,1,4.451,2.2H17.746a.859.859,0,1,0,0,1.719h1.676A2.581,2.581,0,0,0,22,10.4V8.68a.859.859,0,0,0-.859-.859Zm-.614,9.751a.859.859,0,1,0,.232,1.193.859.859,0,0,0-.232-1.193Zm1.444-2.657c-.006-.028-.012-.055-.02-.082s-.018-.053-.028-.079a.832.832,0,0,0-.036-.076c-.013-.025-.028-.049-.043-.072a.806.806,0,0,0-.05-.068.848.848,0,0,0-.119-.12.788.788,0,0,0-.068-.05.826.826,0,0,0-.072-.043c-.025-.013-.05-.025-.076-.036s-.053-.02-.079-.028-.055-.015-.082-.021a.787.787,0,0,0-.084-.012.835.835,0,0,0-.169,0,.781.781,0,0,0-.083.012.87.87,0,0,0-.161.049.787.787,0,0,0-.076.036.757.757,0,0,0-.072.043.717.717,0,0,0-.068.05.8.8,0,0,0-.063.057.779.779,0,0,0-.057.063.867.867,0,0,0-.093.14.832.832,0,0,0-.036.076c-.011.026-.02.052-.028.079s-.015.054-.021.082a.859.859,0,0,0,0,.336c.006.027.013.055.021.082s.018.053.028.079a.832.832,0,0,0,.036.076c.013.024.028.049.043.072a.8.8,0,0,0,.05.068.779.779,0,0,0,.057.063.8.8,0,0,0,.063.057.78.78,0,0,0,.068.05.757.757,0,0,0,.072.043.787.787,0,0,0,.076.036.837.837,0,0,0,.079.028c.027.008.054.015.082.021a.781.781,0,0,0,.083.012.793.793,0,0,0,.085,0,.886.886,0,0,0,.168-.017c.027-.006.055-.012.082-.021s.053-.018.079-.028.051-.023.076-.036A.826.826,0,0,0,21.6,15.8c.023-.015.046-.033.068-.05a.848.848,0,0,0,.119-.12.806.806,0,0,0,.05-.068c.015-.023.03-.048.043-.072a.832.832,0,0,0,.036-.076c.011-.026.02-.052.028-.079s.015-.055.02-.082A.851.851,0,0,0,21.982,15,.841.841,0,0,0,21.97,14.914ZM7.046,20.281H3.437a1.721,1.721,0,0,1-1.719-1.719V5.156A1.721,1.721,0,0,1,3.437,3.437H4.511V4.3a.859.859,0,0,0,1.719,0V3.437H10.1V4.3a.859.859,0,0,0,1.719,0V3.437h3.91V4.3a.859.859,0,0,0,1.719,0V3.437h1.117a1.721,1.721,0,0,1,1.719,1.719.859.859,0,1,0,1.719,0,3.441,3.441,0,0,0-3.437-3.437H17.445V.859a.859.859,0,0,0-1.719,0v.859h-3.91V.859a.859.859,0,0,0-1.719,0v.859H6.23V.859a.859.859,0,1,0-1.719,0v.859H3.437A3.441,3.441,0,0,0,0,5.156V18.562A3.441,3.441,0,0,0,3.437,22H7.046a.859.859,0,0,0,0-1.719Zm0,0" transform="translate(0)" fill="#1e9af2"/>
</svg>
