<svg xmlns="http://www.w3.org/2000/svg" width="38.901" height="27.353" viewBox="0 0 38.901 27.353">
  <path id="Path_34" data-name="Path 34" d="M35.482,76H3.419A3.424,3.424,0,0,0,0,79.419V99.934a3.424,3.424,0,0,0,3.419,3.419H35.482A3.424,3.424,0,0,0,38.9,99.934V79.419A3.424,3.424,0,0,0,35.482,76Zm-.525,2.279L20.334,92.951a1.331,1.331,0,0,1-1.766,0L3.944,78.279ZM2.279,99.515V79.838l9.806,9.838Zm1.665,1.559,9.751-9.783,3.258,3.269a3.607,3.607,0,0,0,5,0l3.258-3.269,9.751,9.782Zm32.678-1.559-9.806-9.838,9.806-9.838Z" transform="translate(0 -76)" fill="#b0b0b0"/>
</svg>
