<svg xmlns="http://www.w3.org/2000/svg" width="21" height="21" viewBox="0 0 21 21">
  <g id="factory" transform="translate(0 0.001)">
    <path id="Path_2049" data-name="Path 2049" d="M20.65,74.154H19.576L18.9,64.33A.35.35,0,0,0,18.55,64h-2.1a.35.35,0,0,0-.35.326l-.676,9.824H14.7v-2.1a.35.35,0,0,0-.569-.273L11.2,74.126V72.054a.35.35,0,0,0-.569-.273L7.7,74.126V72.054a.35.35,0,0,0-.569-.273L4.2,74.126V72.054a.35.35,0,0,0-.53-.3l-3.5,2.1a.35.35,0,0,0-.17.3v8.4a.35.35,0,0,0,.35.35h20.3a.35.35,0,0,0,.35-.35V74.5A.35.35,0,0,0,20.65,74.154ZM16.777,64.7h1.446l.652,9.45h-2.75ZM11.9,82.2V78H14v4.2Zm8.4,0H14.7v-4.55a.35.35,0,0,0-.35-.35h-2.8a.35.35,0,0,0-.35.35V82.2H.7V74.352l2.8-1.68v2.182a.35.35,0,0,0,.569.273L7,72.782v2.072a.35.35,0,0,0,.569.274L10.5,72.782v2.072a.35.35,0,0,0,.569.273L14,72.782V74.5a.35.35,0,0,0,.35.35H20.3V82.2Zm0,0" transform="translate(0 -61.905)"/>
    <path id="Path_2050" data-name="Path 2050" d="M352.306.7a1.3,1.3,0,0,1,.34.263,1.224,1.224,0,0,0,.782.437,1.277,1.277,0,0,0,.825-.455,1.641,1.641,0,0,1,.3-.245c.072,0,.261.18.362.275a1.172,1.172,0,0,0,.758.425,1.367,1.367,0,0,0,.879-.482c.086-.08.216-.2.241-.218.188,0,.231.062.347.229a.885.885,0,0,0,.774.471.35.35,0,0,0,0-.7c-.07,0-.084,0-.2-.169A1.034,1.034,0,0,0,356.788,0a1.124,1.124,0,0,0-.72.407c-.116.11-.311.293-.385.294a1.425,1.425,0,0,1-.295-.238,1.3,1.3,0,0,0-.84-.464,1.214,1.214,0,0,0-.774.433,1.453,1.453,0,0,1-.336.267,1.362,1.362,0,0,1-.315-.249A1.27,1.27,0,0,0,352.308,0a.35.35,0,0,0,0,.7Zm0,0" transform="translate(-340.408 0)"/>
    <path id="Path_2051" data-name="Path 2051" d="M65.75,490.668h-1.4a.35.35,0,0,0-.35.35v2.1a.35.35,0,0,0,.35.35h1.4a.35.35,0,0,0,.35-.35v-2.1A.35.35,0,0,0,65.75,490.668Zm-.35,2.1h-.7v-1.4h.7Zm0,0" transform="translate(-61.9 -474.569)"/>
    <path id="Path_2052" data-name="Path 2052" d="M151.082,490.668h-1.4a.35.35,0,0,0-.35.35v2.1a.35.35,0,0,0,.35.35h1.4a.35.35,0,0,0,.35-.35v-2.1A.35.35,0,0,0,151.082,490.668Zm-.35,2.1h-.7v-1.4h.7Zm0,0" transform="translate(-144.432 -474.569)"/>
    <path id="Path_2053" data-name="Path 2053" d="M236.414,490.668h-1.4a.35.35,0,0,0-.35.35v2.1a.35.35,0,0,0,.35.35h1.4a.35.35,0,0,0,.35-.35v-2.1A.35.35,0,0,0,236.414,490.668Zm-.35,2.1h-.7v-1.4h.7Zm0,0" transform="translate(-226.964 -474.569)"/>
  </g>
</svg>
