<svg xmlns="http://www.w3.org/2000/svg" width="34.286" height="28" viewBox="0 0 34.286 28">
  <path id="folder" d="M32.851,14.643H30.857V11.061A1.563,1.563,0,0,0,29.3,9.5H15.151l-2.857-4H1.561A1.563,1.563,0,0,0,0,7.061V32.025H0A1.459,1.459,0,0,0,1.466,33.5H27.042a1.451,1.451,0,0,0,1.4-1.036l5.843-16.022v-.1A1.531,1.531,0,0,0,32.851,14.643ZM1.143,7.061a.419.419,0,0,1,.418-.418H11.706l2.857,4H29.3a.418.418,0,0,1,.418.418v3.582H7.275a1.465,1.465,0,0,0-1.4,1.035L1.143,28.585ZM27.354,32.119a.324.324,0,0,1-.311.238H1.466a.316.316,0,0,1-.256-.127A.309.309,0,0,1,1.139,32L6.963,16.024a.324.324,0,0,1,.311-.238H32.851c.217,0,.273.312.287.468Z" transform="translate(0 -5.5)"/>
</svg>
