<svg xmlns="http://www.w3.org/2000/svg" width="38.006" height="50.787" viewBox="0 0 38.006 50.787">
  <g id="Group_29" data-name="Group 29" transform="translate(0)">
    <path id="Path_35" data-name="Path 35" d="M96.01,22.132h-.747V15.516a15.516,15.516,0,1,0-31.032,0,1.42,1.42,0,1,0,2.84,0,12.676,12.676,0,1,1,25.351,0v6.617H63.5a2.747,2.747,0,0,0-2.746,2.746V42.561a8.238,8.238,0,0,0,8.226,8.226H90.53a8.238,8.238,0,0,0,8.226-8.226V24.878A2.747,2.747,0,0,0,96.01,22.132Zm-.095,20.428a5.389,5.389,0,0,1-5.386,5.386H68.987A5.389,5.389,0,0,1,63.6,42.561V24.973H95.916V42.561Z" transform="translate(-60.75)" fill="#b0b0b0"/>
    <path id="Path_36" data-name="Path 36" d="M196.262,308.724a5.312,5.312,0,1,0-5.312-5.312A5.318,5.318,0,0,0,196.262,308.724Zm0-7.795a2.477,2.477,0,1,1-2.472,2.483A2.476,2.476,0,0,1,196.262,300.93Z" transform="translate(-177.254 -266.742)" fill="#b0b0b0"/>
  </g>
</svg>
