<svg xmlns="http://www.w3.org/2000/svg" width="25.031" height="22" viewBox="0 0 25.031 22">
  <path id="portfolio" d="M24.3,2.934H17.649V2.2a2.2,2.2,0,0,0-2.2-2.2H9.582a2.2,2.2,0,0,0-2.2,2.2v.733H.734A.735.735,0,0,0,0,3.667V19.8A2.2,2.2,0,0,0,2.2,22H22.831a2.2,2.2,0,0,0,2.2-2.2V3.679a.712.712,0,0,0-.729-.746ZM8.849,2.2a.734.734,0,0,1,.733-.733h5.867a.734.734,0,0,1,.733.733v.733H8.849ZM23.281,4.4,21,11.232a.732.732,0,0,1-.7.5H16.182V11a.733.733,0,0,0-.733-.733H9.582A.733.733,0,0,0,8.849,11v.733H4.724a.732.732,0,0,1-.7-.5L1.751,4.4Zm-8.565,7.333V13.2h-4.4V11.733ZM23.565,19.8a.734.734,0,0,1-.733.733H2.2a.734.734,0,0,1-.733-.733V8.186l1.17,3.51a2.2,2.2,0,0,0,2.087,1.5H8.849v.733a.733.733,0,0,0,.733.733h5.867a.733.733,0,0,0,.733-.733V13.2h4.125a2.2,2.2,0,0,0,2.087-1.5l1.17-3.51Zm0,0" transform="translate(0)" fill="#1e9af2"/>
</svg>
