<svg xmlns="http://www.w3.org/2000/svg" xmlns:xlink="http://www.w3.org/1999/xlink" width="25" height="32.5" viewBox="0 0 25 32.5">
  <defs>
    <clipPath id="clip-path">
      <rect width="25" height="32.5" fill="none"/>
    </clipPath>
    <clipPath id="clip-path-2">
      <rect width="20" height="26" fill="none"/>
    </clipPath>
  </defs>
  <g id="recycle" clip-path="url(#clip-path)">
    <g id="Action_1" data-name="Action 1" clip-path="url(#clip-path-2)">
      <path id="Trash" d="M14.9,25H4.1a2.122,2.122,0,0,1-2.1-1.964L1,4H0V3H5V2A2.013,2.013,0,0,1,7,0h5a2,2,0,0,1,2,2V3h5V4H18L16.99,23.036A2.122,2.122,0,0,1,14.9,25ZM2,4,3.005,22.97A1.136,1.136,0,0,0,4.1,24H14.9a1.135,1.135,0,0,0,1.1-1.03L17,4ZM7,1A1,1,0,0,0,6,2V3h7V2a1,1,0,0,0-1-1Zm3,21H9V6h1V22Zm3,0H12l.976-16H14L13,22ZM6,22,5,6H6L7,22H6Z" transform="translate(0.5 0.5)" fill="#007aff" stroke="rgba(0,0,0,0)" stroke-width="1"/>
    </g>
  </g>
</svg>
